<svg width="77" height="62" viewBox="0 0 77 62" fill="none" xmlns="http://www.w3.org/2000/svg">
<path d="M45.5701 60.42C49.4716 60.42 53.335 59.6515 56.9396 58.1584C60.5442 56.6654 63.8194 54.4769 66.5782 51.7181C69.337 48.9593 71.5255 45.6841 73.0185 42.0795C74.5116 38.4749 75.2801 34.6115 75.2801 30.71" stroke="#3E3186" stroke-width="2" stroke-linecap="round" stroke-linejoin="round"/>
<path d="M15.86 30.71C15.86 38.5895 18.9901 46.1464 24.5618 51.7181C30.1335 57.2898 37.6904 60.42 45.57 60.42" stroke="#FF6252" stroke-width="2" stroke-linecap="round" stroke-linejoin="round"/>
<path d="M45.57 1C37.6904 1 30.1335 4.13015 24.5618 9.70186C18.9901 15.2736 15.86 22.8304 15.86 30.71" stroke="#3E3186" stroke-width="2" stroke-linecap="round" stroke-linejoin="round"/>
<path d="M75.2801 30.71C75.2801 26.8084 74.5116 22.9451 73.0185 19.3405C71.5255 15.7359 69.337 12.4607 66.5782 9.70186C63.8194 6.94303 60.5442 4.75461 56.9396 3.26154C53.335 1.76847 49.4716 1 45.5701 1" stroke="#FF6252" stroke-width="2" stroke-linecap="round" stroke-linejoin="round"/>
<path d="M15.86 45.57C17.811 45.57 19.7428 45.1855 21.5451 44.4386C23.3475 43.6917 24.985 42.597 26.3641 41.217C27.7431 39.837 28.8368 38.1987 29.5825 36.3959C30.3282 34.593 30.7113 32.6609 30.71 30.71" stroke="#3E3186" stroke-width="2" stroke-linecap="round" stroke-linejoin="round"/>
<path d="M1 30.71C1 34.6511 2.5656 38.4308 5.35239 41.2176C8.13918 44.0044 11.9189 45.57 15.86 45.57" stroke="#FF6252" stroke-width="2" stroke-linecap="round" stroke-linejoin="round"/>
<path d="M15.86 15.8599C13.909 15.8586 11.9769 16.2417 10.1741 16.9874C8.37124 17.7331 6.73301 18.8267 5.353 20.2058C3.97299 21.5849 2.87825 23.2224 2.13134 25.0247C1.38444 26.827 1 28.7589 1 30.7099" stroke="#3E3186" stroke-width="2" stroke-linecap="round" stroke-linejoin="round"/>
<path d="M30.71 30.7099C30.71 28.7597 30.3259 26.8287 29.5796 25.027C28.8333 23.2253 27.7395 21.5883 26.3605 20.2093C24.9816 18.8304 23.3445 17.7365 21.5428 16.9903C19.7411 16.244 17.8101 15.8599 15.86 15.8599" stroke="#FF6252" stroke-width="2" stroke-linecap="round" stroke-linejoin="round"/>
</svg>
